<svg width="137" height="24" xmlns="http://www.w3.org/2000/svg"><g fill="none" fill-rule="evenodd"><path d="M.04 23V.868H7.6c1.708 0 3.144.59 4.308 1.753 1.164 1.165 1.754 2.602 1.754 4.31 0 1.83-.62 3.295-1.86 4.37 1.618 1.24 2.42 2.947 2.42 5.14 0 1.873-.636 3.43-1.905 4.685C11.047 22.38 9.46 23 7.57 23H.04zm3.69-3.28H7.6c.8 0 1.496-.378 2.086-1.12.59-.74.877-1.556.877-2.418 0-2.132-1.3-3.22-3.22-3.22H3.73v6.757zm0-9.69h3.613c.786 0 1.436-.258 1.95-.772.53-.53.786-1.225.786-2.117 0-.724-.243-1.39-.742-2.01-.483-.62-1.058-.92-1.738-.92H3.73v5.82zM28.673.61c5.277 0 8.058 3.81 8.058 11.37 0 7.513-2.856 11.322-8.057 11.322-5.276 0-8.072-3.764-8.072-11.323C20.6 4.42 23.43.61 28.674.61zm-4.37 11.37c0 5.275 1.604 7.98 4.37 7.98 1.376 0 2.45-.664 3.22-2.01.772-1.345 1.15-3.325 1.15-5.97 0-2.646-.394-4.627-1.165-5.972-.77-1.346-1.86-2.01-3.235-2.01-2.72 0-4.34 2.735-4.34 7.98zM41.542 23h4.053l4.67-8.118L54.982 23h4.053L52.29 11.36 58.322.867h-4.02l-4.038 6.954-3.99-6.954H42.25l6.032 10.49L41.54 23z" fill="#F8AA00"/><path d="M66.307 23V.868h3.69v9.312h6.59V.868h3.72V23h-3.72v-9.63h-6.59V23h-3.69zm22.77-6.56V.867h3.69v15.6c0 1.074.3 1.92.906 2.54.62.62 1.376.923 2.283.923.922 0 1.693-.3 2.283-.92.603-.62.906-1.468.906-2.51V.867h3.75v15.57c0 2.012-.666 3.66-2.012 4.96-1.33 1.3-2.963 1.95-4.913 1.95-1.934 0-3.567-.65-4.897-1.95-1.33-1.3-1.996-2.948-1.996-4.96zM111.65 23V.868h7.56c1.708 0 3.144.59 4.308 1.753 1.164 1.165 1.754 2.602 1.754 4.31 0 1.83-.62 3.295-1.86 4.37 1.618 1.24 2.42 2.947 2.42 5.14 0 1.873-.636 3.43-1.905 4.685C122.657 22.38 121.07 23 119.18 23h-7.53zm3.69-3.28h3.87c.8 0 1.496-.378 2.086-1.12.59-.74.877-1.556.877-2.418 0-2.132-1.3-3.22-3.22-3.22h-3.613v6.757zm0-9.69h3.613c.786 0 1.436-.258 1.95-.772.53-.53.786-1.225.786-2.117 0-.724-.243-1.39-.742-2.01-.483-.62-1.058-.92-1.738-.92h-3.87v5.82z" fill="#1A2129"/><path d="M136.15 20.345c0 .778-.28 1.444-.837 2a2.732 2.732 0 0 1-2.006.83 2.742 2.742 0 0 1-2.007-.827 2.729 2.729 0 0 1-.828-2.003c0-.783.276-1.452.828-2.007a2.734 2.734 0 0 1 2.007-.835c.782 0 1.45.28 2.006.835.556.555.836 1.224.836 2.007zm-2.843 2.237c.623 0 1.148-.215 1.568-.646.42-.43.63-.964.63-1.6 0-.634-.21-1.167-.63-1.597-.42-.432-.945-.648-1.568-.648-.62 0-1.142.216-1.565.65-.423.435-.635.964-.635 1.595 0 .63.212 1.16.635 1.595.423.435.945.65 1.565.65zm-.998-.86v-2.764h1.27c.244 0 .456.087.634.264.177.178.268.39.268.635a.893.893 0 0 1-.4.76l.494 1.104h-.612l-.408-.982h-.692v.983h-.555zm.554-1.43h.673a.355.355 0 0 0 .272-.13.406.406 0 0 0 .116-.29.417.417 0 0 0-.117-.294.364.364 0 0 0-.273-.133h-.673v.847z" fill="#181E25"/></g></svg>